<?xml version="1.0" encoding="UTF-8" standalone="no"?>
<!-- Created with Inkscape (http://www.inkscape.org/) -->

<svg
   xmlns:dc="http://purl.org/dc/elements/1.1/"
   xmlns:cc="http://creativecommons.org/ns#"
   xmlns:rdf="http://www.w3.org/1999/02/22-rdf-syntax-ns#"
   xmlns:svg="http://www.w3.org/2000/svg"
   xmlns="http://www.w3.org/2000/svg"
   xmlns:sodipodi="http://sodipodi.sourceforge.net/DTD/sodipodi-0.dtd"
   xmlns:inkscape="http://www.inkscape.org/namespaces/inkscape"
   id="svg2"
   version="1.1"
   inkscape:version="0.48.2 r9819"
   width="480"
   height="600"
   sodipodi:docname="Placeholder portrait.svg">
  <metadata
     id="metadata8">
    <rdf:RDF>
      <cc:Work
         rdf:about="">
        <dc:format>image/svg+xml</dc:format>
        <dc:type
           rdf:resource="http://purl.org/dc/dcmitype/StillImage" />
        <dc:title />
      </cc:Work>
    </rdf:RDF>
  </metadata>
  <defs
     id="defs6" />
  <sodipodi:namedview
     pagecolor="#ffffff"
     bordercolor="#666666"
     borderopacity="1"
     objecttolerance="10"
     gridtolerance="10"
     guidetolerance="10"
     inkscape:pageopacity="0"
     inkscape:pageshadow="2"
     inkscape:window-width="769"
     inkscape:window-height="741"
     id="namedview4"
     showgrid="false"
     inkscape:zoom="0.65"
     inkscape:cx="240"
     inkscape:cy="300"
     inkscape:window-x="210"
     inkscape:window-y="104"
     inkscape:window-maximized="0"
     inkscape:current-layer="svg2">
    <inkscape:grid
       type="xygrid"
       id="grid2840" />
  </sodipodi:namedview>
  <rect
     y="-3.375078e-014"
     x="0"
     height="600"
     width="480"
     id="rect2993"
     style="fill:#ffffff;fill-opacity:1;stroke:none" />
  <rect
     y="20"
     x="20"
     height="560"
     width="440.00003"
     id="rect3010"
     style="fill:#d4d4d4;fill-opacity:1;stroke:none" />
  <path
     transform="matrix(2.1705423,0,0,1.4108527,-74.728652,-2.3255798)"
     d="m 237.14286,214.28572 a 92.14286,184.28572 0 1 1 -184.28572,0 92.14286,184.28572 0 1 1 184.28572,0 z"
     sodipodi:ry="184.28572"
     sodipodi:rx="92.14286"
     sodipodi:cy="214.28572"
     sodipodi:cx="145"
     id="path3012"
     style="fill:#e3e3e3;fill-opacity:1;stroke:none"
     sodipodi:type="arc" />
  <path
     inkscape:connector-curvature="0"
     d="m 265.18398,417.42 c 0,17.97 -16.32,32.58 -36.448,32.58 -20.096,0 -36.448,-14.61 -36.448,-32.58 0,-17.97 16.352,-32.58 36.448,-32.58 20.128,0 36.448,14.61 36.448,32.58 z m -33.984,-267.42 4.288,0 c 24.064,0 44.16,6 60.192,17.91 16.192,11.91 24.31999,27.72 24.31999,47.43 0,13.5 -2.976,24.93 -8.89599,34.32 -5.792,9.27 -16.16,20.22 -31.008,32.82 -14.72,12.57 -24.256,22.95 -28.704,31.29 -4.448,8.34 -6.688,17.46 -6.688,27.39 0,2.1 1.024,7.68 3.104,16.68 l -42.624,0 -4.192,-10.11 c -2.368,-5.85 -3.584,-10.92 -3.584,-15.3 0,-8.34 1.28,-16.32 3.776,-24 2.688,-7.68 6.56,-14.85 11.616,-21.45 5.056,-6.75 15.04,-17.49 29.888,-32.16 15.008,-14.7 22.496,-26.76 22.496,-36.3 0,-18.51 -13.6,-27.84 -40.8,-27.84 -13.216,0 -26.976,5.94 -41.376,17.73 l -23.008,-38.34 c 18.272,-12.75 42.016,-19.47 71.2,-20.07 z"
     style="fill:#ffffff;fill-opacity:1;fill-rule:nonzero;stroke:none"
     id="path3014" />
  <rect
     y="0"
     x="1.5258789e-005"
     height="75"
     width="39.999996"
     id="rect3016"
     style="fill:#bbbbbb;fill-opacity:1;stroke:none" />
  <rect
     transform="matrix(0,1,-1,0,0,0)"
     style="fill:#bbbbbb;fill-opacity:1;stroke:none"
     id="rect3018"
     width="40"
     height="79.999992"
     x="0"
     y="-79.999992" />
  <rect
     transform="scale(-1,1)"
     style="fill:#bbbbbb;fill-opacity:1;stroke:none"
     id="rect3020"
     width="39.999996"
     height="75"
     x="-479.99997"
     y="0" />
  <rect
     y="400"
     x="0"
     height="79.999992"
     width="40"
     id="rect3022"
     style="fill:#bbbbbb;fill-opacity:1;stroke:none"
     transform="matrix(0,1,1,0,0,0)" />
  <rect
     transform="scale(1,-1)"
     style="fill:#bbbbbb;fill-opacity:1;stroke:none"
     id="rect3024"
     width="39.999996"
     height="75"
     x="1.5258789e-005"
     y="-600" />
  <rect
     y="-79.999992"
     x="-600"
     height="79.999992"
     width="40"
     id="rect3026"
     style="fill:#bbbbbb;fill-opacity:1;stroke:none"
     transform="matrix(0,-1,-1,0,0,0)" />
  <rect
     y="-600"
     x="-479.99997"
     height="75"
     width="39.999996"
     id="rect3028"
     style="fill:#bbbbbb;fill-opacity:1;stroke:none"
     transform="scale(-1,-1)" />
  <rect
     transform="matrix(0,-1,1,0,0,0)"
     style="fill:#bbbbbb;fill-opacity:1;stroke:none"
     id="rect3030"
     width="40"
     height="79.999992"
     x="-600"
     y="400" />
</svg>
